<svg width="104" height="108" viewBox="0 0 104 108" fill="none" xmlns="http://www.w3.org/2000/svg">
<g filter="url(#filter0_d_0_42)">
<path d="M54.3681 65.4923L54.3455 65.508L54.3238 65.5249C53.7921 65.9394 53.1691 66.2021 52.518 66.2978C52.1479 66.3451 51.7929 66.3451 51.4501 66.2983C50.7963 66.203 50.1727 65.9402 49.6423 65.5249L49.6186 65.5063L49.5939 65.4893C49.3077 65.2917 49.1422 65.0224 49.1043 64.7696C49.1315 64.7496 49.1768 64.7227 49.2452 64.694C49.3166 64.6641 49.4011 64.6373 49.4949 64.6149C49.5031 64.6135 49.5243 64.6102 49.5624 64.6058C49.6116 64.6001 49.6755 64.5941 49.7549 64.5881C49.9136 64.5762 50.1156 64.5658 50.3509 64.5572C50.8206 64.5402 51.399 64.5315 51.9815 64.5315C52.5641 64.5315 53.1425 64.5402 53.6122 64.5572C53.8474 64.5658 54.0495 64.5762 54.2082 64.5881C54.2875 64.5941 54.3515 64.6001 54.4006 64.6058C54.4388 64.6102 54.46 64.6135 54.4681 64.6149C54.562 64.6373 54.6464 64.6641 54.7179 64.694C54.7863 64.7227 54.8315 64.7496 54.8588 64.7696C54.8209 65.0226 54.6551 65.2929 54.3681 65.4923ZM58.5578 44.7767L58.5601 44.7796C59.504 45.995 59.9427 47.179 59.9427 49.1604V49.7284C59.9427 50.6569 60.0659 51.4508 60.3536 52.1915C60.6404 52.9297 61.0684 53.5574 61.5997 54.1779L61.5997 54.1779L61.6089 54.1884C62.1205 54.7692 62.3333 55.5622 62.3333 56.608C62.3333 57.5415 62.0316 58.4081 61.4367 59.1126C60.6011 60.0002 59.4222 60.5678 58.2339 60.666L58.2313 60.6663C56.1421 60.8444 54.0805 60.9916 52.0006 60.9916C49.903 60.9916 47.847 60.9028 45.7983 60.6691L45.7828 60.6673L45.7673 60.666C44.5773 60.5678 43.3987 60 42.5648 59.1129C41.9692 58.4077 41.6666 57.5408 41.6666 56.608C41.6666 55.5636 41.8802 54.7699 42.391 54.1885C42.9438 53.5624 43.3757 52.9303 43.6602 52.1868C43.9447 51.4432 44.0585 50.6493 44.0585 49.7284V49.1604C44.0585 47.1369 44.5456 45.8941 45.5464 44.6452C47.0614 42.795 49.5156 41.6667 51.941 41.6667H52.0603C54.5433 41.6667 57.0759 42.8539 58.5578 44.7767Z" stroke="white" stroke-width="2" shape-rendering="crispEdges"/>
</g>
<circle cx="59.3335" cy="44.6667" r="4" fill="#D175B6"/>
<defs>
<filter id="filter0_d_0_42" x="0.666626" y="0.666668" width="102.667" height="106.667" filterUnits="userSpaceOnUse" color-interpolation-filters="sRGB">
<feFlood flood-opacity="0" result="BackgroundImageFix"/>
<feColorMatrix in="SourceAlpha" type="matrix" values="0 0 0 0 0 0 0 0 0 0 0 0 0 0 0 0 0 0 127 0" result="hardAlpha"/>
<feOffset/>
<feGaussianBlur stdDeviation="20"/>
<feComposite in2="hardAlpha" operator="out"/>
<feColorMatrix type="matrix" values="0 0 0 0 0 0 0 0 0 0.933333 0 0 0 0 0.772549 0 0 0 0.4 0"/>
<feBlend mode="normal" in2="BackgroundImageFix" result="effect1_dropShadow_0_42"/>
<feBlend mode="normal" in="SourceGraphic" in2="effect1_dropShadow_0_42" result="shape"/>
</filter>
</defs>
</svg>
